<svg width="130" height="93" viewBox="0 0 130 93" fill="none" xmlns="http://www.w3.org/2000/svg">
<path id="quote-close" d="M106.272 46.576L94.136 48.544C88.4507 48.544 83.4213 46.576 79.048 42.64C74.456 38.9227 72.16 33.3467 72.16 25.912C72.16 18.696 74.5653 12.5733 79.376 7.544C84.1867 2.51467 90.9653 0 99.712 0C108.24 0 115.347 3.28 121.032 9.84C126.499 16.4 129.232 24.8187 129.232 35.096C129.232 45.592 125.296 55.9787 117.424 66.256C109.333 76.5333 97.8533 85.0613 82.984 91.84L80.688 86.264C101.243 74.8933 111.52 63.4133 111.52 51.824C111.52 48.3253 109.771 46.576 106.272 46.576ZM34.112 46.576L21.976 48.544C16.2907 48.544 11.2613 46.576 6.888 42.64C2.296 38.9227 0 33.3467 0 25.912C0 18.696 2.40533 12.5733 7.216 7.544C12.0267 2.51467 18.8053 0 27.552 0C36.08 0 43.1867 3.28 48.872 9.84C54.3387 16.4 57.072 24.8187 57.072 35.096C57.072 45.592 53.136 55.9787 45.264 66.256C37.1733 76.5333 25.6933 85.0613 10.824 91.84L8.528 86.264C29.0827 74.8933 39.36 63.4133 39.36 51.824C39.36 48.3253 37.6107 46.576 34.112 46.576Z" transform="translate(0.106445 0.383789)" fill="url(#paint0_radial)"/>
<defs>
<radialGradient id="paint0_radial" cx="0.5" cy="0.5" r="0.5" gradientUnits="userSpaceOnUse" gradientTransform="matrix(361 -248 485.036 257.291 -459.624 116.971)">
<stop offset="0.0331492" stop-color="#FF1E98"/>
<stop offset="0.640884" stop-color="#531EFF"/>
<stop offset="1" stop-color="#47FFD3"/>
</radialGradient>
</defs>
</svg>
