<svg width="130" height="93" viewBox="0 0 130 93" fill="none" xmlns="http://www.w3.org/2000/svg">
<path id="quote-open" d="M22.96 45.264L35.096 43.296C40.7813 43.296 45.8107 45.264 50.184 49.2C54.776 52.9173 57.072 58.4933 57.072 65.928C57.072 73.144 54.6667 79.2667 49.856 84.296C45.0453 89.3253 38.2667 91.84 29.52 91.84C20.992 91.84 13.8853 88.56 8.2 82C2.73333 75.44 0 67.0213 0 56.744C0 46.248 3.936 35.8613 11.808 25.584C19.8987 15.3067 31.3787 6.77867 46.248 0L48.544 5.57601C27.9893 16.9467 17.712 28.4267 17.712 40.016C17.712 43.5147 19.4613 45.264 22.96 45.264ZM95.12 45.264L107.256 43.296C112.941 43.296 117.971 45.264 122.344 49.2C126.936 52.9173 129.232 58.4933 129.232 65.928C129.232 73.144 126.827 79.2667 122.016 84.296C117.205 89.3253 110.427 91.84 101.68 91.84C93.152 91.84 86.0453 88.56 80.36 82C74.8933 75.44 72.16 67.0213 72.16 56.744C72.16 46.248 76.096 35.8613 83.968 25.584C92.0587 15.3067 103.539 6.77867 118.408 0L120.704 5.57601C100.149 16.9467 89.872 28.4267 89.872 40.016C89.872 43.5147 91.6213 45.264 95.12 45.264Z" transform="translate(0.66156 0.775879)" fill="url(#paint0_radial)"/>
<defs>
<radialGradient id="paint0_radial" cx="0.5" cy="0.5" r="0.5" gradientUnits="userSpaceOnUse" gradientTransform="matrix(272 258.436 -129.39 452.203 -71.9666 -399.313)">
<stop offset="0.0331492" stop-color="#FF1E98"/>
<stop offset="0.640884" stop-color="#531EFF"/>
<stop offset="1" stop-color="#47FFD3"/>
</radialGradient>
</defs>
</svg>
